<svg width="104" height="101" viewBox="0 0 104 101" fill="none" xmlns="http://www.w3.org/2000/svg">
<path d="M102.822 87.0993L60.0436 5.40476C59.2683 3.92529 58.103 2.68616 56.6738 1.8216C55.2447 0.957035 53.6062 0.5 51.9359 0.5C50.2656 0.5 48.6272 0.957035 47.198 1.8216C45.7689 2.68616 44.6035 3.92529 43.8283 5.40476L1.045 87.0993C0.314195 88.4946 -0.0442398 90.0547 0.0043594 91.629C0.0529586 93.2033 0.506948 94.7384 1.32242 96.0858C2.1379 97.4333 3.28727 98.5475 4.65939 99.3208C6.03151 100.094 7.57995 100.5 9.15497 100.5H94.7123C96.2873 100.5 97.8358 100.094 99.2079 99.3208C100.58 98.5475 101.729 97.4333 102.545 96.0858C103.36 94.7384 103.814 93.2033 103.863 91.629C103.912 90.0547 103.553 88.4946 102.822 87.0993ZM47.3569 34.1146C47.3569 32.9008 47.8391 31.7366 48.6974 30.8783C49.5557 30.02 50.7198 29.5378 51.9336 29.5378C53.1475 29.5378 54.3116 30.02 55.1699 30.8783C56.0282 31.7366 56.5104 32.9008 56.5104 34.1146V61.5749C56.5104 62.7888 56.0282 63.9529 55.1699 64.8112C54.3116 65.6695 53.1475 66.1517 51.9336 66.1517C50.7198 66.1517 49.5557 65.6695 48.6974 64.8112C47.8391 63.9529 47.3569 62.7888 47.3569 61.5749V34.1146ZM52.1625 86.7927H52.0343C50.2294 86.7869 48.4967 86.0835 47.1985 84.8297C45.9002 83.5758 45.137 81.8685 45.0685 80.0649C45.0356 79.1679 45.1817 78.2733 45.4983 77.4334C45.815 76.5935 46.2959 75.8252 46.9129 75.1732C47.5299 74.5213 48.2706 73.9989 49.0918 73.6365C49.913 73.2741 50.7982 73.0789 51.6956 73.0625H51.8238C53.6283 73.0647 55.3621 73.7647 56.6621 75.0162C57.9622 76.2676 58.7278 77.9735 58.7987 79.7766C58.8342 80.6756 58.6896 81.5727 58.3735 82.4151C58.0573 83.2574 57.5759 84.0281 56.9577 84.6818C56.3394 85.3354 55.5967 85.8589 54.7732 86.2214C53.9497 86.5839 53.0621 86.7782 52.1625 86.7927Z" fill="#3182CE"/>
</svg>
